<?xml version="1.0" standalone="no"?>
<!DOCTYPE svg PUBLIC "-//W3C//DTD SVG 20010904//EN"
 "http://www.w3.org/TR/2001/REC-SVG-20010904/DTD/svg10.dtd">
<svg version="1.0" xmlns="http://www.w3.org/2000/svg"
 width="1044.000000pt" height="1044.000000pt" viewBox="0 0 1044.000000 1044.000000"
 preserveAspectRatio="xMidYMid meet">
<metadata>
Created by potrace 1.11, written by Peter Selinger 2001-2013
</metadata>
<g transform="translate(0.000000,1044.000000) scale(0.100000,-0.100000)"
fill="#000000" stroke="none">
<path d="M4806 9995 c-578 -51 -1257 -260 -1776 -547 -796 -441 -1487 -1173
-1879 -1993 -368 -769 -512 -1632 -415 -2490 42 -379 160 -832 310 -1192 388
-930 1056 -1692 1929 -2200 467 -271 1089 -479 1640 -547 492 -61 714 -62
1195 -6 675 79 1311 316 1925 718 185 121 303 215 525 419 259 239 375 369
617 693 463 620 768 1424 844 2230 13 142 12 640 -1 812 -16 193 -106 683
-161 872 -148 514 -411 1030 -745 1466 -219 287 -390 465 -664 694 -256 214
-295 244 -455 349 -391 255 -782 433 -1255 572 -96 28 -451 103 -565 119 -279
41 -794 55 -1069 31z m-1305 -2610 c135 -25 277 -73 379 -127 118 -63 149 -84
313 -216 241 -193 458 -318 702 -402 168 -58 288 -86 514 -123 178 -28 217
-31 426 -31 215 0 239 2 360 28 72 15 184 44 250 63 324 95 439 124 540 139
359 53 751 -76 1054 -349 206 -185 344 -418 396 -664 58 -279 28 -600 -78
-840 -145 -330 -410 -557 -802 -689 -248 -83 -541 -87 -775 -12 -80 25 -244
106 -319 157 -31 21 -108 80 -171 131 -149 119 -339 244 -467 309 -119 59
-305 131 -348 135 -16 1 -40 7 -52 14 -22 12 -265 59 -583 113 -183 31 -187
31 -345 20 -251 -17 -462 -62 -770 -161 -83 -27 -193 -56 -245 -66 -116 -21
-326 -24 -430 -5 -216 38 -417 136 -610 297 -252 210 -396 456 -446 763 -22
137 -15 405 15 533 52 226 171 438 341 609 112 112 200 176 341 248 121 62
205 91 349 122 111 23 345 25 461 4z"/>
<path d="M3108 7116 c-317 -57 -586 -250 -733 -529 -86 -163 -121 -329 -112
-531 8 -194 59 -351 167 -513 199 -300 527 -468 880 -449 347 17 646 190 833
482 186 289 208 675 55 979 -138 273 -374 466 -663 541 -123 32 -310 40 -427
20z m58 -386 c125 -54 204 -204 175 -334 -31 -138 -187 -250 -324 -232 -149
20 -271 157 -270 302 2 208 223 348 419 264z m419 -911 c51 -14 100 -65 115
-118 22 -82 -13 -156 -92 -195 -61 -31 -89 -32 -144 -7 -144 66 -150 248 -9
312 46 21 75 23 130 8z"/>
<path d="M6980 6443 c-245 -48 -435 -147 -587 -306 -125 -131 -195 -253 -249
-432 -26 -83 -28 -103 -28 -270 0 -168 2 -186 27 -270 94 -309 298 -545 582
-673 195 -88 471 -106 685 -45 346 99 618 378 711 730 32 119 37 330 11 453
-82 393 -364 689 -755 791 -62 17 -118 23 -227 25 -80 1 -156 0 -170 -3z m53
-393 c97 -49 169 -163 170 -270 1 -110 -73 -214 -190 -267 -174 -80 -397 59
-411 257 -8 119 73 243 189 289 74 29 175 25 242 -9z m439 -946 c68 -35 107
-143 78 -214 -18 -43 -83 -98 -125 -106 -131 -24 -244 116 -191 239 38 89 147
127 238 81z"/>
</g>
</svg>
