<?xml version="1.0" encoding="utf-8"?>
<!-- Generator: Adobe Illustrator 21.1.0, SVG Export Plug-In . SVG Version: 6.00 Build 0)  -->
<svg version="1.1" id="Layer_1" xmlns="http://www.w3.org/2000/svg" xmlns:xlink="http://www.w3.org/1999/xlink" x="0px" y="0px"
	 viewBox="0 0 399.8 400.2" style="enable-background:new 0 0 399.8 400.2;" xml:space="preserve">
<style type="text/css">
	.st0{fill:#FDCE64;}
	.st1{fill:#F6B356;}
	.st2{fill:#FEFEFE;}
	.st3{fill:#FEFEFD;}
	.st4{fill:#354B5D;}
	.st5{fill:#87DBFC;}
	.st6{fill:#5AC0E9;}

	.eyes{
		animation-name: straight;
		animation-duration: 1s;
		animation-delay: 4s;
		animation-fill-mode: forwards;
	}

	@keyframes straight{
		0% {
			transform: rotate(0deg);
		}
		100% {
			transform: rotate(10deg)
			translateY(-25px)
			translateX(15px);
		}
	}

</style>
<g>
	<circle class="st0" cx="199.9" cy="199.9" r="199.9"/>
	<path class="st1 floor" d="M71.8,353.7c1,0,2,0,3,0c83.4,0,166.8,0,250.2,0c1,0,2,0,3,0c-8,5.8-15.7,12.1-24.1,17.3
		c-21.8,13.6-45.6,22.3-71,26.5c-17.5,2.9-35.1,3.5-52.7,1.7c-39.6-3.9-74.8-18.4-105.9-43.2C73.4,355.3,72.6,354.4,71.8,353.7z"/>
	<path class="st2 chest" d="M126.9,173.8c0.1-3.5-0.5-7.1,0.3-10.3c3-11.8,15.4-17.9,26.7-13.5c1.9,0.7,2.7,0.4,3.7-1.3
		c4.3-7.1,10.4-11.1,18.9-10.8c0.7,0,1.3-0.1,2-0.1c10.2,0,20.4,0,30.6,0c4,0.2,8.1,0.1,11.9,2.1c4,2.2,7,5.2,9.2,9.2
		c0.7,1.3,1.4,1.8,2.9,1.1c7.3-3,14.2-2.2,20.4,2.7c6.4,5.2,8.3,12.1,6.9,20.1c0,0.2,0,0.3,0,0.5c-1.2,2.4-2.2,5.1-3.7,7.3
		c-3.7,5.2-9.1,7.6-15.3,8.2c-3.7-0.8-7.4-1.6-11.4-2.4c-0.5,3.7-1.2,7.7-1.6,11.8c-0.7,6-2,11.9-6.4,16.4c-2.1,2.1-4.7,3.7-7,5.5
		c-2.7,0.6-5.4,1.1-8,1.7c-8.7,0-17.4,0-26,0c-2.7-0.5-5.5-1-8.2-1.5c-9.5-4.8-12.9-13.3-13.8-23.3c-0.3-3.7-1-7.4-1.5-10.7
		c-3.8,0.9-7.4,1.7-11,2.5C136.5,188.2,130.2,183,126.9,173.8z"/>
	<path class="st3 leg" d="M177.1,237.3c1.4,8.2,3.2,16.3,4.3,24.6c2.5,19.3,3.8,38.8,3.1,58.3c-0.2,4.5-1,9.1-1.8,13.6
		c-0.6,3.1-2.3,5.5-5.5,6.5c-3.3,0-6.6,0.1-9.9,0c-3.7-0.1-7.1-1.3-10.1-3.6c-4.7-4.7-6.4-10.6-7-16.9c-1.2-12.9,0.7-25.5,2.9-38.2
		c2.6-14.5,6.3-28.8,11.9-42.4c1.2-2.9,3-5.5,4.6-8.3c0.9-0.6,1.8-1.1,3.3-2.1C174.4,231.8,175.7,234.5,177.1,237.3z"/>
	<path class="st2 leg" d="M210.7,340.5c-4.7-2-6.2-6.3-6.4-10.7c-0.6-10.1-1-20.3-1-30.4c0-6.4,0.9-12.7,1.4-19.1
		c0.5-6.3,0.8-12.6,1.7-18.8c1.1-7.5,2.8-15,4.2-22.5c0.1-0.6,0.2-1.2,0.3-1.7c0.3-0.7,0.6-1.5,1-2.2c1-2.2,1.2-4.8,4.1-5.8
		c0.8,0.5,1.6,1,2.4,1.6c4.7,6.6,7.3,14.2,9.3,21.9c2.9,10.9,5.7,21.9,7.8,33c1.4,7.5,1.8,15.2,2.3,22.9c0.3,4.5-0.1,9.1-0.4,13.6
		c-0.5,5.5-2.5,10.5-6.5,14.5c-2.5,1.1-4.8,2.8-7.4,3.2C219.1,340.5,214.9,340.4,210.7,340.5z"/>
	<path class="st3 arm" d="M125.5,214.6c4.8,3,5.1,3.1,2.8,8.4c-1.2,3-1,5.2,0.2,8.1c1.7,4.3,2.5,8.9,3.7,13.4c0.3,1.3-0.1,2-1.4,2.4
		c-1.1,0.3-2.1,0.9-3.2,1.3c-8.8,3.3-16.1,8.7-21.8,16.2c-1,1.6-2.1,3.2-3.3,4.9c-3.2-3.6-4.3-7.9-4.5-12.3
		c-0.6-10.8,1.5-21.2,5.9-31.1c0.5-1.2,0.7-2.9,0.4-4.2c-2-8.1-1.4-15.8,2.7-23.5c1.5,1.8,2.9,3.4,4.2,5
		C115.2,208.3,120.2,211.7,125.5,214.6z"/>
	<path class="st3 arm" d="M260,248.6c-0.3-0.2-0.6-0.4-0.9-0.5c-4.1-1.8-4.3-1.8-3.2-6.2c1.1-4.4,2.8-8.7,4.1-13c0.3-1,0.2-2.2,0-3.2
		c-0.5-1.9-1.1-3.8-1.8-5.7c-0.8-2-0.2-3.1,1.7-3.8c0.8-0.3,1.4-0.8,2.1-1.2c5.4-2.9,10.4-6.4,14.3-11.1c1.3-1.6,2.6-3.2,4.1-4.9
		c2.5,3.2,3.5,6.9,3.7,10.7c0.1,4.3-0.6,8.6-0.8,12.9c-0.1,1.3-0.1,2.8,0.5,4c4.8,10.9,7.1,22.2,5.5,34c-0.4,3.4-1.5,6.6-4.1,9.3
		c-1.2-1.7-2.2-3.3-3.3-4.9C276.3,257.1,268.9,251.7,260,248.6z"/>
	<path class="st4 arm" d="M276.4,203.6c-3.9,4.8-8.9,8.2-14.3,11.1c-8.6-7.2-15.2-16.1-20.8-25.7c6.2-0.6,11.6-3,15.3-8.2
		c1.6-2.2,2.5-4.8,3.7-7.3C267.5,182.6,272.9,192.6,276.4,203.6z"/>
	<path class="st4 arm" d="M125.4,214.7c-5.4-2.9-10.4-6.4-14.3-11.1c3.4-10.9,8.9-20.6,15.7-29.7c3.2,9.2,9.6,14.4,19.4,15.2
		C140.6,198.7,134,207.5,125.4,214.7z"/>
	<path class="st4 neck" d="M182.2,116.3c6.4-1.8,12.8-3.6,19.2-5.3c0.9-0.3,1.9-0.3,2.9-0.4c1.6,9.1,3.2,18.2,4.8,27.2
		c-10.2,0-20.4,0-30.6,0C179.8,130.6,181,123.5,182.2,116.3z"/>
	<path class="st4 hand" d="M105.8,264.8c5.7-7.6,13-12.9,21.8-16.2c3.7,3.8,6.6,8.2,8.3,13.2c0.4,1.3,0.1,3.4-0.7,4.6
		c-0.7,0.9-2.6,1.5-3.9,1.3c-1.1-0.2-2.2-1.5-2.9-2.6c-0.9-1.3-1.3-2.9-2.2-4.2c-1.6-2.6-3.7-3.4-6.1-2.6c-2.2,0.7-3.9,3-3.6,5.7
		c0.5,4.4,1.3,8.7,2.2,13c0.6,3,0.3,4.9-1.7,5.9c-2.5,1.4-5.2,0.9-6.2-2C108.9,275.6,107.4,270.2,105.8,264.8z"/>
	<path class="st4 hand" d="M260,248.7c8.9,3.2,16.3,8.5,21.9,16.2c-1.5,5.1-2.9,10.2-4.6,15.2c-1,2.9-3.3,4-5.6,3.2
		c-2.4-0.9-3.5-3.2-2.8-6.1c0.8-3.4,1.5-6.8,2.1-10.2c0.2-1.2,0.3-2.5,0.2-3.7c-0.2-2.3-1.2-3.9-3.5-4.7c-2.2-0.7-4.2-0.4-5.6,1.5
		c-1.1,1.4-1.9,3.1-2.6,4.7c-1.1,2.7-3,3.8-5.4,2.9c-2.2-0.8-3.1-2.9-2.2-5.5C253.6,257.1,256.3,252.6,260,248.7z"/>
	<path class="st3 foot" d="M176.1,346.7c5.2,0.3,6.7,1.6,6.8,5.9c-11,0-22.1,0-33.1,0c-0.1-4.1,1.5-5.6,6.2-5.9
		C162.7,346.7,169.4,346.7,176.1,346.7z"/>
	<path class="st3" d="M230.4,346.6c5,0.3,6.2,1.4,6.7,5.9c-11.1,0-22.2,0-33.4,0c0.3-4.4,1.7-5.6,6.6-5.9
		C217,346.6,223.7,346.6,230.4,346.6z"/>
	<path class="st4 foot" d="M177.3,346.6c-6.7,0-13.4,0-20.1,0c0-3.3,0.1-6.5,0.1-9.8c2.9,2.3,6.4,3.5,10.1,3.6c3.3,0.1,6.6,0,9.9,0
		C177.3,342.5,177.3,344.5,177.3,346.6z"/>
	<path class="st4 foot" d="M230.9,346.6c-6.7,0-13.4,0-20.1,0c0-2,0-4,0.1-6c4.2-0.2,8.4,0,12.6-0.6c2.6-0.4,4.9-2.1,7.4-3.2
		C230.8,340.1,230.8,343.3,230.9,346.6z"/>
	<path class="st4 leg" d="M177,237.4c-1.3-2.8-2.7-5.5-4.2-8.5c-1.5,1-2.4,1.5-3.3,2.1c1.1-3.5,2.2-7,3.3-10.4c2.7,0.5,5.5,1,8.2,1.5
		C179.8,227.1,178.4,232.3,177,237.4z"/>
</g>
<path class="st4 leg" d="M218.1,230.9c-0.8-0.5-1.6-1.1-2.4-1.6c-2.8,1-3.1,3.6-4.1,5.8c-0.3,0.7-0.6,1.5-1,2.2
	c-1.4-5.1-2.7-10.2-4.1-15.3c2.7-0.6,5.4-1.1,8-1.7C215.8,223.9,217,227.4,218.1,230.9z"/>
<g class="eyes"> 
	<path class="st3 " d="M182.2,116.3c-7.5,2.7-13.8,7.3-19.8,12.3c-11.3,9.5-24.2,12.5-38.3,7.7c-14.8-5-23.9-15.5-26.9-31
		c-4.1-21.4,10.8-42.9,33.4-46.2c6.2-0.9,12.5-0.5,18.4,1.8c9.5,3.7,19.3,6,29.5,5.5c18.4-1,35.3-6.1,49.5-18.5
		c21.6-18.8,54.5-10.1,64.4,16.7c8.1,21.8-5.2,45.9-28.4,51.8c-7.4,1.9-14.7,1.4-21.8-1.2c-8.5-3.1-17.1-5.6-26.2-5.4
		c-3.9,0.1-7.8,0.5-11.7,0.7c-1,0.1-2,0.2-2.9,0.4C195,112.8,188.6,114.5,182.2,116.3z M136.5,66.9c-17.5,0-31.6,13.9-31.7,31.3
		c0,17.3,14.3,31.7,31.6,31.7c17,0,31.3-14.4,31.3-31.8C167.9,80.9,153.9,66.9,136.5,66.9z M222.8,77.8c0,17.3,14.2,31.3,31.7,31.2
		c17.1,0,31.3-14.2,31.3-31.4c0-17.4-14.3-31.6-31.7-31.5C236.8,46.1,222.8,60.3,222.8,77.8z"/>
	<path class="st5" d="M136.6,66.9c17.4,0,31.3,14,31.3,31.2c-0.1,17.3-14.3,31.8-31.3,31.8c-17.4,0-31.7-14.4-31.6-31.7
		C105,80.9,119.1,66.9,136.6,66.9z M131.7,80.7c-4.8-1.6-8.3-0.7-11,2.7c-2,2.6-2.1,5.5-1.2,8.5c-0.4,0.7-0.9,1.4-1.1,2.2
		c-2.7,11.2,5.8,22.8,18.7,22.7c2.3,0,4.5-1.5,6.8-2.3c4.6,1.8,7.3,0.1,7.9-5.3c0.2-0.5,0.3-1,0.5-1.4c4.7-7.9,3.2-17.9-4.1-23.9
		C143.8,80.4,137.1,78.9,131.7,80.7z"/>
	<path class="st5" d="M222.7,77.8c0-17.4,14-31.7,31.2-31.7c17.4-0.1,31.8,14.2,31.7,31.5c0,17.2-14.2,31.4-31.3,31.4
		C237,109.1,222.8,95.1,222.7,77.8z M237.4,70.9c-0.5,1.1-1.4,2.2-1.5,3.3c-1,7.2,1.2,13.3,6.9,18c5.5,4.4,14.3,5.2,19.4,1.8
		c5.1,1.4,8.2-1.5,7-6.5c0.5-0.4,1-0.8,1.3-1.3c6.5-11.9-2.3-27-15.9-27.1c-1.7,0-3.3,0.6-5,0.9c-2-0.2-4.1-0.8-6-0.6
		C239.8,59.9,235.5,64.5,237.4,70.9z"/>
	<path class="st6" d="M143.9,114.6c-2.3,0.8-4.5,2.3-6.8,2.3c-12.9,0.1-21.4-11.5-18.7-22.7c0.2-0.8,0.7-1.5,1.1-2.2
		c2.7,4.4,6.2,6.3,10.2,5.3c3.5-0.9,5.9-3.1,6.6-6.7c0.9-4.3-0.9-7.6-4.6-9.9c5.4-1.9,12.1-0.3,16.6,3.3c7.2,6,8.8,16,4.1,23.9
		c-0.2,0.4-0.3,0.9-0.5,1.4c-1.1-2.4-2.7-4.3-5.7-4c-2.1,0.2-3.6,1.3-4.3,3.3C141,111.2,141.9,113,143.9,114.6z"/>
	<path class="st3" d="M131.7,80.7c3.8,2.3,5.5,5.6,4.6,9.9c-0.7,3.6-3.1,5.8-6.6,6.7c-4,1-7.5-0.9-10.2-5.3c-0.9-3-0.8-5.9,1.2-8.5
		C123.3,80,126.9,79.2,131.7,80.7z"/>
	<path class="st3" d="M143.9,114.6c-1.9-1.5-2.9-3.4-2-5.9c0.7-2,2.2-3.1,4.3-3.3c3-0.3,4.5,1.6,5.7,4
		C151.1,114.6,148.4,116.4,143.9,114.6z"/>
	<path class="st6" d="M249.8,60c1.7-0.3,3.3-0.9,5-0.9c13.5,0.1,22.4,15.2,15.9,27.1c-0.3,0.5-0.9,0.9-1.3,1.3c-1.3-1-2.5-2.5-4-2.9
		c-2.3-0.6-4.2,0.6-5.2,2.7c-1.1,2.3-0.4,4.4,2.2,6.7c-5.2,3.3-14,2.6-19.4-1.8c-5.7-4.6-7.9-10.8-6.9-18c0.2-1.2,1-2.2,1.5-3.3
		c1.6,1.7,2.8,3.8,4.7,4.9c4,2.3,9.1,0.4,11.4-3.6C255.9,67.8,254.5,63,249.8,60z"/>
	<path class="st3" d="M249.8,60c4.7,3.1,6.1,7.8,3.7,12.2c-2.2,4-7.3,5.9-11.4,3.6c-1.9-1.1-3.2-3.2-4.7-4.9
		c-1.9-6.4,2.4-11,6.3-11.5C245.7,59.1,247.8,59.8,249.8,60z"/>
	<path class="st3" d="M262.2,94c-2.6-2.2-3.3-4.3-2.2-6.7c1-2.2,2.9-3.4,5.2-2.7c1.5,0.4,2.7,1.9,4,2.9
		C270.5,92.5,267.3,95.4,262.2,94z"/>
</g>
</svg>
